# xmcd
#
# Track frame offsets: 
#        150
#        18987
#        32177
#        51135
#        67640
#        82487
#        99147
#        113322
#        134682
#        155525
#        170825
#        183022
#        201015
#        224707
#
# Disc length: 3247 seconds
#
# Revision: 0
# Processed by: cddbd v1.5.2PL0 Copyright (c) Steve Scherf et al.
# Submitted via: ExactAudioCopy v0.90b4
#
DISCID=bd0cad0e
DTITLE=Crossroads Band - I Want It... Right Now
DYEAR=2006
DGENRE=Blues
TTITLE0=Too Young To Die
TTITLE1=What's He Got
TTITLE2=Depression Blues
TTITLE3=Barefoot Rock
TTITLE4=Mama and Poppa
TTITLE5=Follow Me
TTITLE6=Long Distance Operator
TTITLE7=Never Leave Me At Home
TTITLE8=Mean and Evil Blues
TTITLE9=I want Some Love
TTITLE10=Let M Go
TTITLE11=I'm Lost Without You
TTITLE12=All Night Lovin' Man
TTITLE13=Hot and Cold
EXTD=
EXTT0=
EXTT1=
EXTT2=
EXTT3=
EXTT4=
EXTT5=
EXTT6=
EXTT7=
EXTT8=
EXTT9=
EXTT10=
EXTT11=
EXTT12=
EXTT13=
PLAYORDER=
